<svg width="75" height="57" viewBox="0 0 75 57" fill="none" xmlns="http://www.w3.org/2000/svg">
<path d="M58.8864 7.29279C54.9633 7.29279 45.5397 30.2805 42.5685 34.8971C42.4129 35.1725 42.2105 35.4187 41.9702 35.6246C41.3311 36.3045 40.2909 37.2291 39.4274 36.8416C39.4274 36.8416 40.6036 36.8416 41.5963 35.067C41.6439 32.2998 47.0355 22.0264 47.2327 21.1765C47.4299 20.3266 46.3012 19.4836 45.193 19.4836C44.4089 19.5211 43.6417 19.7251 42.9425 20.0819C43.1854 20.252 43.4129 20.443 43.6224 20.653C43.908 20.9181 41.6983 25.6163 39.9305 29.5938C37.6052 33.6732 34.0153 39.6701 33.5326 38.5754C32.8051 36.9368 42.3714 23.7874 41.8954 22.8763C41.6915 22.4887 40.5356 21.1901 39.2778 19.7623C43.4048 16.9543 45.8253 13.8811 46.0089 11.719C46.1653 9.85605 41.2495 6.57209 40.9232 8.27186C40.5968 9.97163 34.804 13.7859 34.2601 15.1185C34.4164 15.5673 35.3751 17.4778 36.2998 19.266C34.4676 20.3967 32.5381 21.3615 30.5342 22.1488C33.8249 12.8272 37.0001 5.38223 37.0001 4.93349C36.8591 4.2937 36.5187 3.7152 36.0278 3.28131C36.4328 2.87467 36.8644 2.49537 37.3197 2.14588C37.3197 2.14588 35.6811 -0.417375 33.5666 0.493702C27.7261 4.2264 21.0222 17.7498 15.6374 28.5739C7.66203 32.3338 0.529785 36.7328 0.529785 41.601C0.529785 46.2379 6.64896 56.7697 15.8889 36.4201C16.4328 35.2189 16.97 34.0562 17.5003 32.9321C16.4508 33.0341 15.4115 33.2229 14.3931 33.4965L18.3026 31.1848C20.6687 29.8794 22.7832 28.7371 24.6597 27.7172L27.7261 25.9087C27.6649 25.9699 25.5708 27.9484 23.8983 29.9201C21.4098 37.1136 19.2273 43.6203 18.8805 45.7212C18.7318 46.6361 18.6568 47.5615 18.6562 48.4884C13.3937 49.991 9.50458 51.0381 8.31474 51.1265C3.46699 51.4936 2.01199 49.7667 2.01199 49.7667C2.01199 49.7667 2.01199 53.649 6.73735 54.9816C8.19916 55.3896 13.0129 54.3017 19.2341 52.6291C19.9956 55.0564 21.4982 56.7901 23.7419 56.7901C21.8517 50.1542 25.5096 36.6309 29.4463 25.052C30.4798 24.4673 31.4044 23.937 32.2135 23.4406C33.111 23.0735 33.9745 22.6927 34.7972 22.2916C35.6199 21.8904 36.4018 21.4757 37.1429 21.0473C37.5576 21.8428 37.8704 22.4479 37.952 22.6179C38.2579 23.223 30.7449 34.3804 29.3443 36.0733C27.9437 37.7663 28.5012 42.682 31.588 42.92C34.5048 43.1512 37.5236 35.5702 37.8636 34.5503L39.9509 30.8312C39.0774 32.7062 38.3102 34.6288 37.6528 36.59C37.6528 36.7192 37.578 36.8416 37.544 36.9572C37.51 37.0728 37.544 37.1816 37.5848 37.2904C37.8296 38.827 39.0262 39.908 42.0382 39.908C45.7709 39.908 54.9565 15.1049 60.1442 10.0872C61.504 8.78858 62.3267 9.90362 62.3267 9.90362C62.1203 9.1506 61.6713 8.4867 61.0494 8.0147C60.4274 7.54269 59.6671 7.28895 58.8864 7.29279ZM7.30168 42.852C6.23422 43.3823 4.93559 42.4509 4.81321 41.0502C4.26752 41.9259 3.84646 42.8733 3.56218 43.8651C3.52775 42.8689 3.71411 41.8775 4.10789 40.9618C4.50167 40.0461 5.09313 39.2288 5.83987 38.5686C6.18521 38.2104 6.57078 37.8932 6.98892 37.6235V37.6235C7.28333 37.4333 7.58743 37.2586 7.89999 37.1C9.59977 36.1118 11.2134 35.1872 12.7409 34.326C10.4021 38.8882 8.49152 42.2333 7.30168 42.852ZM25.938 24.0865C24.2858 24.7665 22.5384 25.494 20.7775 26.2555C23.7181 20.3746 27.1025 14.7263 30.9013 9.3597C29.8067 12.8952 27.9097 18.3753 25.938 24.0661V24.0865ZM37.5644 17.7974C36.6125 16.5804 35.9598 15.5537 36.2658 15.2681C37.4488 14.1599 41.7866 8.30584 41.8478 9.99881C41.8954 11.2974 38.9038 15.8256 37.5644 17.777V17.7974Z" fill="#7E5AFF"/>
<path d="M69.9757 6.56543C70.7978 7.85819 71.2364 9.35763 71.2404 10.8896C71.2404 13.4325 65.8011 27.0715 54.5146 32.8303C53.6307 32.8303 54.8749 28.8665 56.8399 24.9366C57.3465 25.3556 57.9778 25.5947 58.6349 25.6165C60.5726 25.6165 66.1478 22.9512 66.1478 17.6751C66.1478 14.9555 62.8979 14.5272 62.3404 14.5272C59.7839 14.5272 50.6323 21.6186 50.6323 31.9192C50.6323 34.8904 54.0319 35.3732 56.1464 35.3732C59.7975 35.3732 75.0003 21.6798 75.0003 12.2563C75.0003 7.83686 69.9757 6.56543 69.9757 6.56543ZM57.8258 23.0736C59.6207 19.9052 61.7488 17.206 63.4214 17.2536C63.4214 19.3681 60.1918 24.481 57.4926 23.6719C57.0029 23.4679 56.5992 23.1002 56.3504 22.6317C56.8104 22.8695 57.3107 23.0194 57.8258 23.0736Z" fill="#7E5AFF"/>
<path d="M67.6978 36.2232C64.4682 35.0946 41.6641 41.8189 25.1899 46.6122C24.9607 48.0994 24.8064 49.597 24.7275 51.0996C38.1761 47.163 54.9835 41.5809 60.5723 40.5814C69.4111 38.9564 72.328 39.9355 72.328 39.9355C72.328 39.9355 72.3279 37.3111 67.6978 36.2232Z" fill="#7E5AFF"/>
</svg>
