<svg width="266" height="322" viewBox="0 0 266 322" fill="none" xmlns="http://www.w3.org/2000/svg">
<path d="M181.878 339.652C249.837 558.848 210.395 461.218 200.076 464.419C189.757 467.62 212.465 570.434 144.498 351.244C114.479 254.418 96.311 193.234 86.649 154.61C74.4477 105.854 75.8686 93.257 84.1962 90.6774C92.5238 88.0978 100.84 97.6747 118.346 144.783C132.213 182.057 151.857 242.846 181.878 339.652Z" fill="#7645A2"/>
<path d="M84.9048 109.23C60.7862 89.1443 57.6124 69.4161 57.3391 50.5402C57.2399 43.2295 57.577 36.051 57.3027 29.0248C56.3298 4.13372 46.0619 0.128715 45.8265 0.0417257C46.244 0.0373118 59.5505 -0.031958 71.9622 18.3149C79.7712 30.2436 85.0231 43.6613 87.3866 57.7215L90.052 48.6965C90.052 48.6965 112.986 97.7881 84.9048 109.23Z" fill="white"/>
<path d="M82.9995 40.7114C82.4602 44.4187 81.094 46.5316 79.5732 45.8067C75.8394 44.0201 75.9771 33.4733 71.8551 34.4977C67.7331 35.5221 72.9177 49.9984 69.3316 48.7395C65.7454 47.4805 66.2039 37.5294 62.8117 38.7016C60.1572 39.6117 59.8038 49.8683 57.3391 50.5402C57.2399 43.2295 57.577 36.051 57.3027 29.0248C56.3298 4.13372 46.0619 0.128715 45.8265 0.0417257C46.244 0.0373118 59.5505 -0.031958 71.9622 18.3149C76.5879 25.2754 80.2975 32.8028 82.9995 40.7114V40.7114Z" fill="url(#paint0_linear_7637_2401)"/>
<path d="M118.347 144.777L86.6494 154.604C74.4481 105.848 75.8691 93.2507 84.1967 90.6711C92.5243 88.0914 100.821 97.6665 118.347 144.777Z" fill="#AEB4D6"/>
<defs>
<linearGradient id="paint0_linear_7637_2401" x1="101.787" y1="220.249" x2="56.4844" y2="-21.9953" gradientUnits="userSpaceOnUse">
<stop offset="0.01" stop-color="#3FB771"/>
<stop offset="1" stop-color="#91FF45"/>
</linearGradient>
</defs>
</svg>
