<svg width="38" height="37" viewBox="0 0 38 37" fill="none" xmlns="http://www.w3.org/2000/svg">
<path d="M19.153 0.00271064C22.8026 0.00271096 26.3703 1.08704 29.4049 3.11857C32.4394 5.1501 34.8046 8.03757 36.2013 11.4159C37.598 14.7942 37.9634 18.5116 37.2514 22.098C36.5394 25.6844 34.7819 28.9787 32.2012 31.5644C29.6205 34.15 26.3325 35.9109 22.753 36.6242C19.1735 37.3376 15.4633 36.9715 12.0914 35.5721C8.71961 34.1728 5.83765 31.8031 3.81002 28.7627C1.78239 25.7223 0.700086 22.1477 0.700086 18.4911C0.70801 13.5901 2.65465 8.89212 6.11352 5.42659C9.5724 1.96106 14.2614 0.0106486 19.153 0.00271064ZM19.153 29.4961C21.3254 29.4961 23.449 28.8507 25.2553 27.6414C27.0616 26.4322 28.4694 24.7134 29.3008 22.7025C30.1321 20.6916 30.3497 18.4789 29.9258 16.3441C29.502 14.2094 28.4559 12.2485 26.9198 10.7094C25.3836 9.17031 23.4265 8.12218 21.2958 7.69755C19.1652 7.27292 16.9567 7.49087 14.9497 8.32381C12.9426 9.15675 11.2272 10.5673 10.0203 12.377C8.81334 14.1868 8.1691 16.3145 8.1691 18.4911C8.1691 21.4098 9.3263 24.209 11.3862 26.2728C13.446 28.3367 16.2399 29.4961 19.153 29.4961Z" fill="white"/>
</svg>
