<svg width="42" height="43" viewBox="0 0 42 43" fill="none" xmlns="http://www.w3.org/2000/svg">
<path d="M20.5565 42.1717C16.49 42.1629 12.5174 40.9465 9.14065 38.6763C5.76391 36.4061 3.13463 33.1839 1.58505 29.417C0.035472 25.6501 -0.364859 21.5075 0.434673 17.5127C1.2342 13.5179 3.19771 9.8502 6.07704 6.97312C8.95637 4.09603 12.6223 2.13868 16.6116 1.34841C20.6008 0.558136 24.7344 0.970393 28.4899 2.53312C32.2454 4.09585 35.4542 6.73891 37.7109 10.1283C39.9676 13.5176 41.1709 17.5012 41.1687 21.5755C41.1658 24.2841 40.6303 26.9655 39.5927 29.4667C38.5551 31.9679 37.0359 34.2397 35.1217 36.1524C33.2075 38.0651 30.9359 39.5811 28.4368 40.6139C25.9376 41.6468 23.2599 42.1761 20.5565 42.1717ZM20.5565 9.31585C18.1364 9.31585 15.7707 10.0348 13.7585 11.382C11.7463 12.7291 10.1779 14.6438 9.25181 16.8839C8.32569 19.1241 8.08337 21.5891 8.5555 23.9672C9.02764 26.3454 10.193 28.5298 11.9042 30.2444C13.6155 31.9589 15.7958 33.1265 18.1693 33.5996C20.5429 34.0726 23.0032 33.8298 25.239 32.9019C27.4749 31.974 29.3859 30.4027 30.7304 28.3866C32.075 26.3705 32.7926 24.0002 32.7926 21.5755C32.7926 18.324 31.5034 15.2057 29.2087 12.9066C26.914 10.6075 23.8017 9.31585 20.5565 9.31585Z" fill="url(#paint0_linear_7637_2171)"/>
<defs>
<linearGradient id="paint0_linear_7637_2171" x1="12.3917" y1="71.8957" x2="28.8496" y2="-29.1025" gradientUnits="userSpaceOnUse">
<stop stop-color="#FF353D"/>
<stop offset="1" stop-color="#FFC145"/>
</linearGradient>
</defs>
</svg>
