<svg width="36" height="36" viewBox="0 0 36 36" fill="none" xmlns="http://www.w3.org/2000/svg">
<path d="M23.4195 35.777C22.898 35.9412 22.3493 36.0008 21.8048 35.9524C21.2603 35.904 20.7307 35.7485 20.2462 35.4949C19.7617 35.2413 19.3318 34.8946 18.9812 34.4745C18.6305 34.0544 18.3659 33.5691 18.2025 33.0465L9.84856 6.29814C9.68495 5.77563 9.62566 5.22598 9.67408 4.68052C9.72249 4.13505 9.87766 3.60449 10.1307 3.11912C10.3838 2.63374 10.7298 2.20305 11.149 1.85165C11.5682 1.50025 12.0524 1.23499 12.5739 1.07107C13.0954 0.907145 13.644 0.847771 14.1884 0.89628C14.7328 0.944788 15.2624 1.10026 15.7468 1.35381C16.2313 1.60737 16.6611 1.95404 17.0118 2.37404C17.3626 2.79404 17.6273 3.27913 17.7909 3.80164L26.1448 30.55C26.3087 31.0725 26.3681 31.6222 26.3198 32.1677C26.2715 32.7133 26.1164 33.2439 25.8633 33.7294C25.6102 34.2148 25.2641 34.6455 24.8448 34.9969C24.4255 35.3482 23.9411 35.6133 23.4195 35.777Z" fill="url(#paint0_linear_7657_1623)"/>
<path d="M32.5745 18.2568L5.8776 26.6267C5.3561 26.7906 4.8075 26.85 4.26309 26.8015C3.71867 26.753 3.1891 26.5976 2.70465 26.344C2.22021 26.0905 1.79035 25.7438 1.43962 25.3238C1.0889 24.9038 0.824183 24.4187 0.660574 23.8962C0.496966 23.3737 0.437672 22.824 0.486087 22.2785C0.534503 21.7331 0.689673 21.2025 0.942741 20.7172C1.19581 20.2318 1.54182 19.8011 1.96101 19.4497C2.38021 19.0983 2.8644 18.8331 3.3859 18.6691L30.0828 10.2991C30.6043 10.1352 31.1529 10.0758 31.6973 10.1243C32.2418 10.1728 32.7713 10.3283 33.2558 10.5818C33.7402 10.8354 34.1701 11.1821 34.5208 11.6021C34.8715 12.0221 35.1362 12.5072 35.2999 13.0297C35.4635 13.5522 35.5228 14.1019 35.4743 14.6473C35.4259 15.1928 35.2707 15.7233 35.0177 16.2087C34.7646 16.6941 34.4186 17.1248 33.9994 17.4762C33.5802 17.8276 33.096 18.0928 32.5745 18.2568Z" fill="url(#paint1_linear_7657_1623)"/>
<defs>
<linearGradient id="paint0_linear_7657_1623" x1="-28.2535" y1="-26.96" x2="67.3079" y2="64.1088" gradientUnits="userSpaceOnUse">
<stop stop-color="#75DDFF"/>
<stop offset="1" stop-color="#008BFF"/>
</linearGradient>
<linearGradient id="paint1_linear_7657_1623" x1="-28.2533" y1="-26.9601" x2="67.308" y2="64.1088" gradientUnits="userSpaceOnUse">
<stop stop-color="#75DDFF"/>
<stop offset="1" stop-color="#008BFF"/>
</linearGradient>
</defs>
</svg>
