<svg width="32" height="32" viewBox="0 0 32 32" fill="none" xmlns="http://www.w3.org/2000/svg">
<path d="M11.3986 0.220612C11.8667 0.0732507 12.3592 0.0197458 12.848 0.0631914C13.3367 0.106639 13.8121 0.246207 14.2471 0.47384C14.682 0.701474 15.0679 1.01272 15.3827 1.38984C15.6975 1.76697 15.935 2.20259 16.0817 2.67174L23.5806 26.6826C23.7275 27.1517 23.7807 27.6451 23.7373 28.1347C23.6938 28.6243 23.5545 29.1006 23.3273 29.5363C23.1002 29.972 22.7896 30.3586 22.4133 30.6741C22.037 30.9895 21.6024 31.2276 21.1343 31.3748C20.6661 31.5219 20.1736 31.5752 19.6849 31.5317C19.1962 31.4881 18.7209 31.3486 18.286 31.121C17.8512 30.8934 17.4653 30.5822 17.1505 30.2051C16.8356 29.8281 16.598 29.3927 16.4511 28.9236L8.95214 4.91274C8.80507 4.44372 8.75169 3.95025 8.79506 3.46055C8.83842 2.97084 8.97766 2.49448 9.20485 2.05873C9.43205 1.62297 9.74273 1.23634 10.1191 0.920943C10.4955 0.605548 10.9303 0.367581 11.3986 0.220612Z" fill="white"/>
<path d="M3.1803 15.9478L27.1451 8.43442C27.6132 8.28727 28.1057 8.23394 28.5944 8.27749C29.0831 8.32103 29.5584 8.46059 29.9933 8.68819C30.4282 8.9158 30.814 9.227 31.1289 9.60402C31.4437 9.98104 31.6813 10.4165 31.8282 10.8855C31.9751 11.3545 32.0283 11.848 31.9848 12.3376C31.9414 12.8273 31.8021 13.3035 31.5749 13.7392C31.3477 14.1749 31.0371 14.5615 30.6608 14.877C30.2845 15.1924 29.8499 15.4305 29.3818 15.5776L5.417 23.091C4.94887 23.2382 4.45641 23.2915 3.96771 23.248C3.47901 23.2044 3.00364 23.0649 2.56877 22.8373C2.1339 22.6097 1.74806 22.2985 1.43323 21.9214C1.1184 21.5444 0.880745 21.109 0.733879 20.6399C0.587015 20.1709 0.533789 19.6775 0.57725 19.1878C0.620711 18.6982 0.760031 18.222 0.9872 17.7863C1.21437 17.3506 1.52497 16.9639 1.90126 16.6485C2.27756 16.333 2.71217 16.0949 3.1803 15.9478Z" fill="white"/>
</svg>
