<svg xmlns="http://www.w3.org/2000/svg" xmlns:xlink="http://www.w3.org/1999/xlink" viewBox="0 0 125.84 125.81"><defs><style>.cls-1{fill:url(#linear-gradient);}.cls-2{fill:#fff;}</style><linearGradient id="linear-gradient" x1="45.84" y1="179.13" x2="87.71" y2="-105.8" gradientUnits="userSpaceOnUse"><stop offset="0" stop-color="#ff4a6b"/><stop offset="1" stop-color="#ffbbae"/></linearGradient></defs><g id="Layer_2" data-name="Layer 2"><g id="Layer_2-2" data-name="Layer 2"><path class="cls-1" d="M125.84,62.91A62.92,62.92,0,1,1,62.91,0,63,63,0,0,1,125.84,62.91Z"/><path class="cls-2" d="M66.47,25a38.08,38.08,0,1,0,34.45,34.45A38.13,38.13,0,0,0,66.47,25ZM88,44.18a31.17,31.17,0,0,1,6.22,17.1.59.59,0,0,1-.71.6,57.23,57.23,0,0,0-19.78-.77.56.56,0,0,1-.61-.35Q72.08,58.24,71,55.88a.57.57,0,0,1,.29-.77,52.87,52.87,0,0,0,15.89-11A.59.59,0,0,1,88,44.18Zm-5.58-4.91a46.06,46.06,0,0,1-14.28,9.87.58.58,0,0,1-.75-.26A121,121,0,0,0,57.11,33.06a.59.59,0,0,1,.36-.93,30.47,30.47,0,0,1,5.52-.5A31.15,31.15,0,0,1,82.4,38.39.6.6,0,0,1,82.45,39.27ZM50,35A108.49,108.49,0,0,1,60.9,51.06a.59.59,0,0,1-.34.86c-8,2.35-17.13,3.37-27.23,3.76a.6.6,0,0,1-.6-.74A31.45,31.45,0,0,1,49.27,34.81.57.57,0,0,1,50,35ZM32.27,62.49c10.86-.35,21.7-1.41,31.64-4.56a.57.57,0,0,1,.7.3c.6,1.25,1.19,2.56,1.77,3.9a.58.58,0,0,1-.36.79c-9.87,3.21-18.68,9.73-26.55,19.63a.6.6,0,0,1-.89,0C34.17,77.8,31.8,70.66,31.7,63.08A.59.59,0,0,1,32.27,62.49ZM44.34,87.3C51.59,78,59.58,72,68.59,69.21a.58.58,0,0,1,.73.36,119.21,119.21,0,0,1,5.55,21.84.6.6,0,0,1-.36.64,31.21,31.21,0,0,1-30.06-3.91A.58.58,0,0,1,44.34,87.3Zm36.72.13a126.35,126.35,0,0,0-5-19.07.58.58,0,0,1,.49-.77,52.22,52.22,0,0,1,16.61,1.13.6.6,0,0,1,.46.7A31.39,31.39,0,0,1,82,87.81.59.59,0,0,1,81.06,87.43Z"/></g></g></svg>