<svg width="29" height="29" viewBox="0 0 29 29" fill="none" xmlns="http://www.w3.org/2000/svg">
<path d="M14.5 29C22.5081 29 29 22.5081 29 14.5C29 6.49187 22.5081 0 14.5 0C6.49187 0 0 6.49187 0 14.5C0 22.5081 6.49187 29 14.5 29Z" fill="white"/>
<path d="M19.0387 9.56982H9.96086C9.12115 9.56982 8.44043 10.2505 8.44043 11.0903V17.9043C8.44043 18.744 9.12115 19.4247 9.96086 19.4247H19.0387C19.8785 19.4247 20.5592 18.744 20.5592 17.9043V11.0903C20.5592 10.2505 19.8785 9.56982 19.0387 9.56982Z" stroke="#9886FF" stroke-linecap="round" stroke-linejoin="round"/>
<path d="M18.989 11.7051L15.5401 15.1596C15.2646 15.4337 14.8918 15.5876 14.5032 15.5876C14.1145 15.5876 13.7417 15.4337 13.4663 15.1596L10.0117 11.7051" stroke="#9886FF" stroke-linecap="round" stroke-linejoin="round"/>
</svg>
