<svg width="52" height="52" viewBox="0 0 52 52" fill="none" xmlns="http://www.w3.org/2000/svg">
<path d="M50.88 25.94C50.88 39.714 39.714 50.88 25.94 50.88C12.166 50.88 1 39.714 1 25.94C1 12.166 12.166 1 25.94 1C39.714 1 50.88 12.166 50.88 25.94Z" stroke="white" stroke-width="2"/>
<path d="M34.0596 17.12H17.8196C16.3174 17.12 15.0996 18.3378 15.0996 19.84V32.03C15.0996 33.5322 16.3174 34.75 17.8196 34.75H34.0596C35.5618 34.75 36.7796 33.5322 36.7796 32.03V19.84C36.7796 18.3378 35.5618 17.12 34.0596 17.12Z" stroke="white" stroke-width="2" stroke-linecap="round" stroke-linejoin="round"/>
<path d="M33.9702 20.9399L27.8002 27.1199C27.3073 27.6103 26.6404 27.8856 25.9452 27.8856C25.25 27.8856 24.583 27.6103 24.0902 27.1199L17.9102 20.9399" stroke="white" stroke-width="2" stroke-linecap="round" stroke-linejoin="round"/>
</svg>
