<svg width="42" height="42" viewBox="0 0 42 42" fill="none" xmlns="http://www.w3.org/2000/svg">
<path d="M21.3361 41.1924C17.2703 41.1924 13.2959 39.9844 9.91536 37.7213C6.53483 35.4582 3.89999 32.2415 2.3441 28.478C0.788218 24.7146 0.381108 20.5733 1.17429 16.5781C1.96747 12.5828 3.92535 8.91291 6.80025 6.03248C9.67515 3.15205 13.338 1.19047 17.3256 0.395763C21.3132 -0.398946 25.4464 0.0089132 29.2027 1.56779C32.9589 3.12667 36.1694 5.76655 38.4282 9.15358C40.687 12.5406 41.8927 16.5227 41.8927 20.5962C41.8839 26.056 39.7153 31.2895 35.8621 35.1502C32.0089 39.0108 26.7853 41.1836 21.3361 41.1924ZM21.3361 8.33657C18.916 8.33657 16.5502 9.05557 14.538 10.4027C12.5258 11.7498 10.9574 13.6645 10.0313 15.9046C9.1052 18.1448 8.86287 20.6098 9.335 22.988C9.80713 25.3661 10.9725 27.5505 12.6838 29.2651C14.3951 30.9796 16.5753 32.1472 18.9489 32.6203C21.3225 33.0933 23.7827 32.8505 26.0186 31.9226C28.2544 30.9947 30.1654 29.4234 31.51 27.4073C32.8545 25.3912 33.5722 23.0209 33.5722 20.5962C33.5722 17.3448 32.283 14.2264 29.9883 11.9273C27.6936 9.62818 24.5813 8.33657 21.3361 8.33657Z" fill="url(#paint0_linear_7637_2170)"/>
<defs>
<linearGradient id="paint0_linear_7637_2170" x1="29.5787" y1="65.8231" x2="18.0004" y2="2.54895" gradientUnits="userSpaceOnUse">
<stop offset="0.01" stop-color="#3FB771"/>
<stop offset="1" stop-color="#91FF45"/>
</linearGradient>
</defs>
</svg>
