<svg width="38" height="41" viewBox="0 0 38 41" fill="none" xmlns="http://www.w3.org/2000/svg">
<path d="M15.142 6.69347L19.3653 16.0579L9.73715 37.4254C9.48235 37.9905 9.12081 38.4989 8.67317 38.9216C8.22552 39.3443 7.70054 39.673 7.12821 39.889C6.55587 40.105 5.94738 40.204 5.33748 40.1804C4.72758 40.1568 4.12821 40.011 3.5736 39.7514C3.01899 39.4918 2.52 39.1235 2.10512 38.6674C1.69023 38.2113 1.36758 37.6765 1.15558 37.0933C0.727436 35.9157 0.776 34.6129 1.29059 33.4718L15.1246 2.78125C14.8529 3.39673 14.7138 4.06441 14.7168 4.73929C14.7198 5.41416 14.8648 6.08053 15.142 6.69347Z" fill="url(#paint0_linear_7791_1852)"/>
<path d="M23.5877 6.69367L19.3644 16.0581L15.1411 6.69011C14.8639 6.07717 14.7189 5.4108 14.7159 4.73593C14.7129 4.06105 14.8519 3.39337 15.1237 2.77789C15.1457 2.72581 15.169 2.67491 15.1934 2.62756C15.2178 2.58021 15.241 2.52812 15.2677 2.48077L15.3328 2.3624C15.3398 2.34858 15.3476 2.33515 15.356 2.32216C15.3769 2.28546 15.399 2.24876 15.4211 2.21207C15.4594 2.14815 15.4989 2.08659 15.5373 2.02622C15.5535 1.999 15.571 1.97414 15.5896 1.9481C15.6081 1.92205 15.6198 1.9043 15.636 1.88418C15.6523 1.86405 15.6848 1.81789 15.7104 1.78475C15.7359 1.7516 15.7673 1.71135 15.7975 1.67703C15.8277 1.6427 15.8475 1.61429 15.8742 1.58469C15.8742 1.58469 15.88 1.57641 15.8835 1.57522C15.9153 1.53813 15.9478 1.50144 15.9811 1.46514L16.002 1.44265L16.0729 1.36807C16.0961 1.34558 16.1205 1.31954 16.1461 1.29586C16.1526 1.28787 16.16 1.28071 16.1682 1.27455C16.203 1.24141 16.239 1.20708 16.275 1.17631C16.2779 1.1725 16.2815 1.16929 16.2855 1.16684C16.3145 1.13961 16.3448 1.11239 16.375 1.08753L16.4818 0.998747C16.5132 0.973889 16.5457 0.947846 16.5783 0.924172L16.6422 0.875639C16.6666 0.857883 16.6921 0.838945 16.7177 0.822373C16.777 0.778575 16.8339 0.739512 16.9001 0.704L17.0082 0.637712C17.0212 0.628563 17.0348 0.620258 17.0488 0.612851C17.0872 0.59036 17.1255 0.567869 17.165 0.546562C17.2126 0.52052 17.2603 0.49448 17.3091 0.470805L17.4183 0.417536C17.5869 0.33896 17.7599 0.270582 17.9365 0.212753L18.0666 0.172503C18.1107 0.158299 18.1549 0.14528 18.2002 0.134627C18.3164 0.102666 18.4326 0.0778063 18.5569 0.0553154L18.7033 0.0328243C18.7974 0.0186196 18.8915 0.0079673 18.9868 0.000864924C18.9917 -0.000259824 18.9969 -0.000259824 19.0019 0.000864924C19.024 0.000864924 19.0472 0.000864924 19.0693 0.000864924C19.1099 0.000864924 19.1518 0.000864924 19.1924 0.000864924C19.2331 0.000864924 19.2993 0.000864924 19.3528 0.000864924C19.4062 0.000864924 19.4596 0.000864924 19.5131 0.000864924C19.5665 0.000864924 19.5956 0.000864924 19.6362 0.000864924H19.7048C19.7094 -0.000288308 19.7142 -0.000288308 19.7187 0.000864924C19.814 0.0079673 19.9081 0.0186196 20.0022 0.0328243L20.1486 0.0553154C20.2648 0.0778063 20.388 0.102666 20.5053 0.134627C20.5506 0.14528 20.5948 0.158299 20.6389 0.172503L20.769 0.212753C20.984 0.283165 21.1937 0.36941 21.3964 0.470805C21.4452 0.49448 21.4929 0.52052 21.5405 0.546562C21.58 0.567869 21.6183 0.59036 21.6567 0.612851C21.6709 0.619994 21.6845 0.62831 21.6973 0.637712L21.8054 0.704C21.867 0.743063 21.9286 0.782126 21.9878 0.822373C22.0134 0.838945 22.0389 0.857883 22.0633 0.875639L22.1272 0.924172C22.1598 0.947846 22.1923 0.973889 22.2237 0.998747L22.3305 1.08753C22.3608 1.11239 22.391 1.13961 22.42 1.16684C22.4243 1.16899 22.4279 1.17226 22.4305 1.17631C22.4665 1.20708 22.5025 1.24141 22.5374 1.27455L22.5594 1.29586C22.585 1.31954 22.6094 1.34558 22.6326 1.36807L22.7035 1.44265C22.7113 1.44924 22.7184 1.4568 22.7244 1.46514C22.7577 1.50144 22.7902 1.53813 22.822 1.57522L22.8325 1.58469C22.858 1.61429 22.8836 1.64506 22.908 1.67703C22.9324 1.70899 22.9672 1.74805 22.9951 1.78475C23.023 1.82144 23.0451 1.84985 23.0695 1.88418C23.0939 1.91851 23.1008 1.92561 23.1159 1.9481C23.131 1.97059 23.152 1.999 23.1682 2.02622C23.2112 2.08659 23.2507 2.1446 23.2844 2.21207C23.3065 2.24876 23.3286 2.28546 23.3495 2.32216C23.3576 2.33636 23.3657 2.3482 23.3727 2.3624L23.4378 2.48077C23.4645 2.52812 23.4889 2.57784 23.5121 2.62756C23.5354 2.67728 23.547 2.69977 23.5644 2.73883L23.5818 2.77789C23.8577 3.39216 24.001 4.05961 24.002 4.73514C24.003 5.41067 23.8617 6.07855 23.5877 6.69367Z" fill="url(#paint1_linear_7791_1852)"/>
<path d="M35.1579 39.7499C34.6038 40.0096 34.0049 40.1555 33.3955 40.1792C32.786 40.2029 32.1779 40.104 31.606 39.8881C31.0341 39.6721 30.5096 39.3435 30.0624 38.9208C29.6153 38.4982 29.2543 37.9899 29.0002 37.425L19.3662 16.0576L23.5895 6.68956C23.8667 6.07662 24.0117 5.41025 24.0147 4.73538C24.0177 4.0605 23.8787 3.39282 23.6069 2.77734L37.4421 33.4714C37.9563 34.6126 38.0046 35.9152 37.5762 37.0926C37.1478 38.27 36.278 39.2259 35.1579 39.7499Z" fill="url(#paint2_linear_7791_1852)"/>
<defs>
<linearGradient id="paint0_linear_7791_1852" x1="3.46207" y1="29.4483" x2="20.9285" y2="12.306" gradientUnits="userSpaceOnUse">
<stop stop-color="#FF5E7A"/>
<stop offset="1" stop-color="#FF8E7C"/>
</linearGradient>
<linearGradient id="paint1_linear_7791_1852" x1="19.3644" y1="13.5723" x2="19.3644" y2="-1.25152" gradientUnits="userSpaceOnUse">
<stop stop-color="#3B92FC"/>
<stop offset="1" stop-color="#5ADBFA"/>
</linearGradient>
<linearGradient id="paint2_linear_7791_1852" x1="28.6168" y1="12.014" x2="28.6168" y2="40.1121" gradientUnits="userSpaceOnUse">
<stop stop-color="#744BFF"/>
<stop offset="1" stop-color="#A49AFF"/>
</linearGradient>
</defs>
</svg>
