<svg xmlns="http://www.w3.org/2000/svg" xmlns:xlink="http://www.w3.org/1999/xlink" viewBox="0 0 125.2 125.2"><defs><style>.cls-1{fill:url(#linear-gradient);}.cls-2{fill:#fff;}</style><linearGradient id="linear-gradient" x1="60.94" y1="4.05" x2="67.07" y2="220.56" gradientTransform="translate(109.14 -12.71) rotate(76.72)" gradientUnits="userSpaceOnUse"><stop offset="0" stop-color="#6ad3ff"/><stop offset="1" stop-color="#399aef"/></linearGradient></defs><g id="Layer_2" data-name="Layer 2"><g id="Layer_2-2" data-name="Layer 2"><circle class="cls-1" cx="62.6" cy="62.6" r="62.6" transform="translate(-12.71 109.14) rotate(-76.72)"/><path class="cls-2" d="M88.35,41.85a4.64,4.64,0,1,1-4.64-4.64A4.63,4.63,0,0,1,88.35,41.85Z"/><path class="cls-2" d="M63.13,43.14A19.47,19.47,0,1,0,82.57,62.58,19.48,19.48,0,0,0,63.13,43.14Zm0,31.93A12.47,12.47,0,1,1,75.57,62.58,12.5,12.5,0,0,1,63.13,75.07Z"/><path class="cls-2" d="M63.13,43.14A19.47,19.47,0,1,0,82.57,62.58,19.48,19.48,0,0,0,63.13,43.14Zm0,31.93A12.47,12.47,0,1,1,75.57,62.58,12.5,12.5,0,0,1,63.13,75.07Z"/><path class="cls-2" d="M88.35,41.85a4.64,4.64,0,1,1-4.64-4.64A4.63,4.63,0,0,1,88.35,41.85Z"/><path class="cls-2" d="M78.63,22.7H47.33A23.74,23.74,0,0,0,23.57,46.42V77.76a23.73,23.73,0,0,0,23.76,23.71h31.3a23.72,23.72,0,0,0,23.75-23.71V46.42A23.73,23.73,0,0,0,78.63,22.7ZM94.94,77.76A16.32,16.32,0,0,1,78.63,94.07H47.33A16.32,16.32,0,0,1,31,77.76V46.42A16.29,16.29,0,0,1,47.33,30.14h31.3A16.29,16.29,0,0,1,94.94,46.42Z"/><path class="cls-2" d="M63.13,43.14A19.47,19.47,0,1,0,82.57,62.58,19.48,19.48,0,0,0,63.13,43.14Zm0,31.93A12.47,12.47,0,1,1,75.57,62.58,12.5,12.5,0,0,1,63.13,75.07Z"/><path class="cls-2" d="M88.35,41.85a4.64,4.64,0,1,1-4.64-4.64A4.63,4.63,0,0,1,88.35,41.85Z"/></g></g></svg>