<svg width="31" height="43" viewBox="0 0 31 43" fill="none" xmlns="http://www.w3.org/2000/svg">
<path d="M24.8819 0.752082C25.4579 1.00377 25.9613 1.39704 26.3453 1.89545C26.7293 2.39387 26.9815 2.98132 27.0787 3.60338L30.5536 25.9235C30.6616 26.6268 30.5679 27.3463 30.2832 27.9982C29.9986 28.6501 29.5348 29.2074 28.9459 29.6052L10.2234 42.2009C9.70049 42.5508 9.09822 42.7634 8.47187 42.8194C7.84553 42.8753 7.2152 42.7727 6.63872 42.521C6.06322 42.2686 5.56035 41.8751 5.17646 41.3768C4.79256 40.8785 4.53997 40.2915 4.44194 39.6697L0.96707 17.3196C0.859261 16.6139 0.954119 15.892 1.24056 15.2383C1.52701 14.5846 1.9932 14.026 2.58469 13.6279L21.2972 1.04222C21.8209 0.692817 22.4249 0.48281 23.052 0.432048C23.6792 0.38129 24.309 0.491439 24.8819 0.752082ZM22.805 24.763L20.5982 10.6066L8.72565 18.6102L10.9224 32.7666L22.805 24.763Z" fill="white"/>
</svg>
