<svg width="34" height="48" viewBox="0 0 34 48" fill="none" xmlns="http://www.w3.org/2000/svg">
<path d="M6.5485 47.2695C5.90679 46.9891 5.34608 46.551 4.9183 45.9957C4.49052 45.4405 4.20949 44.7861 4.10126 44.0931L0.23023 19.2283C0.109835 18.4449 0.214269 17.6433 0.531373 16.9171C0.848476 16.1909 1.36516 15.57 2.02113 15.1269L22.8781 1.09518C23.4607 0.705428 24.1316 0.468513 24.8294 0.406199C25.5271 0.343884 26.2293 0.458158 26.8715 0.738532C27.5126 1.01978 28.0728 1.45813 28.5005 2.01321C28.9282 2.56829 29.2096 3.22227 29.3188 3.9149L33.1898 28.8131C33.3099 29.5993 33.2042 30.4035 32.8851 31.1317C32.566 31.8599 32.0467 32.4822 31.3878 32.9257L10.5419 46.9462C9.95845 47.3355 9.28566 47.5694 8.58698 47.626C7.88829 47.6825 7.18675 47.5598 6.5485 47.2695ZM8.86222 20.5211L11.3205 36.2915L24.5467 27.3754L22.0994 11.605L8.86222 20.5211Z" fill="url(#paint0_linear_7637_2173)"/>
<defs>
<linearGradient id="paint0_linear_7637_2173" x1="-2.69086" y1="95.4601" x2="27.8081" y2="-9.76185" gradientUnits="userSpaceOnUse">
<stop stop-color="#FF4A6B"/>
<stop offset="1" stop-color="#FFBBAE"/>
</linearGradient>
</defs>
</svg>
