<svg width="551" height="490" viewBox="0 0 551 490" fill="none" xmlns="http://www.w3.org/2000/svg">
<path opacity="0.1" d="M0 520.921C110.286 350.901 188.107 158.897 212.462 95.545C213.525 92.7802 215.138 90.2606 217.204 88.1395C219.27 86.0185 221.745 84.3404 224.479 83.2071C227.213 82.0738 230.149 81.5091 233.108 81.5473C236.067 81.5855 238.987 82.2259 241.691 83.4294L574.038 231.299C578.724 233.385 582.526 237.057 584.778 241.669C587.03 246.281 587.588 251.54 586.353 256.523L482.713 672.164C481.595 676.643 479.09 680.653 475.555 683.618L315.339 817.961" fill="black"/>
<path d="M628.795 207.044L570.888 631.49C570.267 636.067 568.21 640.329 565.014 643.661L420.325 794.636L74.6475 533.628C165.831 352.62 222.352 153.285 239.683 87.6623C240.439 84.7978 241.768 82.117 243.591 79.7832C245.415 77.4493 247.693 75.5112 250.288 74.0866C252.883 72.662 255.74 71.7807 258.686 71.4965C261.632 71.2122 264.605 71.5309 267.424 72.4331L298.133 82.2705L307.929 85.4236L315.346 87.7884L365.544 103.853L381.458 108.953L382.773 109.371L613.826 183.294C618.712 184.859 622.891 188.098 625.629 192.442C628.366 196.785 629.487 201.955 628.795 207.044Z" fill="white"/>
<path d="M381.451 108.937C378.165 110.223 374.663 110.862 371.135 110.821C354.6 110.711 335.749 128.266 326.103 150.274C316.457 172.282 297.417 173.346 290.984 155.374C286.425 142.635 299.756 105.8 307.921 85.4L315.339 87.7647L365.537 103.83L381.451 108.937Z" fill="#D9D8EF"/>
<path d="M472.429 248.436C422.624 238.569 373.643 224.91 325.914 207.58C312.192 202.593 298.577 197.301 285.07 191.705C280.551 189.837 275.117 193.731 273.936 198.011C272.503 203.221 275.724 207.289 280.236 209.165C327.154 228.588 375.484 244.399 424.806 256.46C438.98 259.918 453.242 263.071 467.595 265.919C472.382 266.873 477.366 264.556 478.729 259.613C479.981 255.128 477.248 249.397 472.429 248.436Z" fill="#D9D8EF"/>
<path d="M480.854 350.034C420.527 337.319 361.454 319.238 304.338 296.007C288.453 289.554 272.757 282.672 257.25 275.363C252.825 273.289 247.486 274.125 244.864 278.618C242.565 282.559 243.659 288.936 248.108 291.017C304.867 317.667 363.897 339.17 424.491 355.268C441.578 359.793 458.772 363.876 476.075 367.518C480.854 368.527 485.862 366.107 487.217 361.212C488.422 356.679 485.642 351.051 480.854 350.034Z" fill="#D9D8EF"/>
<path d="M303.149 382.384C280.562 374.659 258.641 365.103 237.605 353.81C227.368 348.292 218.179 363.947 228.463 369.465C250.882 381.485 274.244 391.656 298.315 399.876C302.945 401.452 308.22 398.063 309.457 393.57C310.835 388.564 307.795 383.969 303.149 382.384Z" fill="#D9D8EF"/>
<path d="M500.981 459.586L373.025 410.32C368.458 408.562 363.096 412.259 361.891 416.626C360.481 421.742 363.631 426.014 368.19 427.78L496.146 477.046C500.713 478.804 506.075 475.099 507.28 470.74C508.713 465.625 505.564 461.352 500.981 459.586Z" fill="#D9D8EF"/>
<path d="M345.394 495.169C296.523 476.362 249.366 453.367 204.446 426.44C194.422 420.434 185.304 436.104 195.312 442.095C241.623 469.76 290.235 493.367 340.607 512.652C345.174 514.402 350.544 510.713 351.749 506.346C353.119 501.214 349.977 496.926 345.394 495.169Z" fill="#D9D8EF"/>
<path d="M390.151 85.4868C387.868 93.4956 385.372 101.441 382.765 109.355L365.537 103.837C367.899 96.6405 370.167 89.4124 372.269 82.1367C376.088 68.9019 380.82 54.5477 379.127 40.564C378.088 31.9719 373.915 22.8754 365.584 19.281C356.662 15.387 348.843 21.1885 343.087 28.1252C336 36.6305 331.016 47.2483 326.772 57.3774C322.583 67.3568 318.898 77.5806 315.338 87.8043L313.638 92.6757C309.26 105.225 305.118 117.855 301.212 130.567C299.338 136.684 297.023 142.919 296.07 149.265C295.409 153.64 295.653 158.133 298.055 161.349C299.889 163.792 302.433 164.297 305.504 163.217C309.575 161.79 312.197 158.267 314.165 154.475C319.591 144.055 320.354 131.876 326.095 121.463C331.74 111.216 347.355 120.391 341.733 130.615C334.111 144.433 334.741 161.585 322.78 173.244C310.819 184.902 291.409 184.894 282.18 170.091C273.731 156.533 279.243 140.429 283.519 126.484C288.007 111.823 292.816 97.2607 297.944 82.7988C297.999 82.6332 298.062 82.4757 298.118 82.3101C303.078 68.3028 308.094 54.2243 314.457 40.7924C320.189 28.6926 327.402 16.1121 338.126 7.77231C349.489 -1.07196 364.23 -2.68004 376.82 4.78478C389.411 12.2496 395.616 25.8787 397.167 39.9491C398.86 55.2413 394.301 70.8883 390.151 85.4868Z" fill="url(#paint0_linear_7637_2391)"/>
<defs>
<linearGradient id="paint0_linear_7637_2391" x1="404.248" y1="314.384" x2="210.051" y2="30.8439" gradientUnits="userSpaceOnUse">
<stop stop-color="#FF7B47"/>
<stop offset="1" stop-color="#FFC468"/>
</linearGradient>
</defs>
</svg>
