<svg width="102" height="112" viewBox="0 0 102 112" fill="none" xmlns="http://www.w3.org/2000/svg">
<path d="M63.1037 79.0972C29.2397 77.605 7.86914 46.434 7.86914 46.434C7.86914 46.434 14.6138 46.1956 34.2576 55.7163C53.9013 65.2369 62.3161 75.3199 62.3161 75.3199L63.1037 79.0972Z" fill="url(#paint0_linear_7655_1758)"/>
<path d="M61.2034 72.5388C31.454 56.2789 26.0017 18.9019 26.0017 18.9019C26.0017 18.9019 32.1362 21.6652 45.6152 38.8602C59.0942 56.0552 62.1731 68.8082 62.1731 68.8082L61.2034 72.5388Z" fill="url(#paint1_linear_7655_1758)"/>
<path d="M64.8998 76.0842C48.7164 46.2932 64.4564 11.8942 64.4564 11.8942C64.4564 11.8942 68.1261 17.5409 70.1115 39.2641C72.097 60.9872 67.7871 73.4226 67.7871 73.4226L64.8998 76.0842Z" fill="url(#paint2_linear_7655_1758)"/>
<path d="M35.1558 81.5338L79.4688 56.6943C80.2369 56.2638 81.1445 56.156 81.9921 56.3946C82.8396 56.6333 83.5577 57.1989 83.9882 57.967L86.1934 61.9011C89.1048 67.0949 89.8337 73.2324 88.2198 78.9637C86.6059 84.6949 82.7813 89.5502 77.5875 92.4616L66.6489 98.5932C61.4551 101.505 55.3175 102.233 49.5863 100.62C43.8551 99.0056 38.9997 95.1811 36.0884 89.9873L33.8831 86.0532C33.4526 85.2851 33.3448 84.3775 33.5835 83.5299C33.8222 82.6824 34.3877 81.9643 35.1558 81.5338Z" fill="white"/>
<defs>
<linearGradient id="paint0_linear_7655_1758" x1="62.528" y1="109.811" x2="22.599" y2="38.5785" gradientUnits="userSpaceOnUse">
<stop offset="0.01" stop-color="#3FB771"/>
<stop offset="1" stop-color="#91FF45"/>
</linearGradient>
<linearGradient id="paint1_linear_7655_1758" x1="18117.1" y1="17053.2" x2="15561.6" y2="12494.3" gradientUnits="userSpaceOnUse">
<stop offset="0.01" stop-color="#3FB771"/>
<stop offset="1" stop-color="#91FF45"/>
</linearGradient>
<linearGradient id="paint2_linear_7655_1758" x1="25505.5" y1="9618.43" x2="23261.1" y2="5614.47" gradientUnits="userSpaceOnUse">
<stop offset="0.01" stop-color="#3FB771"/>
<stop offset="1" stop-color="#91FF45"/>
</linearGradient>
</defs>
</svg>
