<svg width="47" height="48" viewBox="0 0 47 48" fill="none" xmlns="http://www.w3.org/2000/svg">
<path d="M31.9074 46.8459L3.48616 37.3502C2.43963 36.9968 1.57512 36.243 1.08122 35.2533C0.587327 34.2636 0.504139 33.1183 0.849842 32.0674L10.3384 3.59162C10.5105 3.0721 10.7833 2.59177 11.1412 2.17817C11.4991 1.76457 11.935 1.42586 12.4238 1.18148C12.9127 0.937092 13.445 0.791816 13.99 0.754046C14.5351 0.716277 15.0821 0.786757 15.5999 0.961385L44.0211 10.457C45.0694 10.808 45.9358 11.5614 46.4301 12.5519C46.9244 13.5424 47.0062 14.689 46.6574 15.7398L37.1466 44.2045C36.801 45.2506 36.055 46.1164 35.0726 46.6117C34.0901 47.107 32.9517 47.1912 31.9074 46.8459ZM10.0715 30.7523L30.5947 37.6177L37.4358 17.055L16.9126 10.1896L10.0715 30.7523Z" fill="url(#paint0_linear_7637_2172)"/>
<defs>
<linearGradient id="paint0_linear_7637_2172" x1="13.7243" y1="64.6596" x2="41.3189" y2="-46.7288" gradientUnits="userSpaceOnUse">
<stop stop-color="#744BFF"/>
<stop offset="1" stop-color="#A69DFF"/>
</linearGradient>
</defs>
</svg>
