<svg width="43" height="43" viewBox="0 0 43 43" fill="none" xmlns="http://www.w3.org/2000/svg">
<path d="M14.003 0.749349L39.5156 9.27324C40.455 9.59052 41.2311 10.2672 41.6744 11.1556C42.1178 12.044 42.1924 13.072 41.8821 14.0154L33.3646 39.577C33.2101 40.0433 32.9652 40.4745 32.644 40.8458C32.3227 41.2171 31.9314 41.5211 31.4926 41.7405C31.0538 41.9599 30.576 42.0903 30.0867 42.1242C29.5974 42.1581 29.1064 42.0948 28.6416 41.938L3.12897 33.4142C2.18794 33.0991 1.41021 32.4228 0.9665 31.5337C0.522786 30.6445 0.44938 29.6153 0.762452 28.672L9.29996 3.12042C9.61019 2.1814 10.2799 1.40419 11.1617 0.959588C12.0436 0.514989 13.0655 0.439367 14.003 0.749349ZM33.6042 15.1959L15.1813 9.03308L9.04033 27.4915L27.4632 33.6543L33.6042 15.1959Z" fill="white"/>
</svg>
