<svg width="39" height="36" viewBox="0 0 39 36" fill="none" xmlns="http://www.w3.org/2000/svg">
<path d="M34.8396 35.022H4.29398C3.56329 35.0199 2.8459 34.8256 2.21372 34.4585C1.58154 34.0914 1.05677 33.5643 0.69182 32.93C0.326867 32.2958 0.134609 31.5766 0.134278 30.8445C0.133947 30.1124 0.32554 29.393 0.689919 28.7584L15.9516 2.27761C16.3166 1.6434 16.8419 1.11666 17.4746 0.750431C18.1073 0.384207 18.825 0.191406 19.5557 0.191406C20.2863 0.191406 21.0042 0.384207 21.6369 0.750431C22.2696 1.11666 22.7947 1.6434 23.1597 2.27761L38.4215 28.7584C38.7859 29.393 38.9775 30.1124 38.9772 30.8445C38.9768 31.5766 38.7846 32.2958 38.4196 32.93C38.0547 33.5643 37.5298 34.0914 36.8976 34.4585C36.2654 34.8256 35.548 35.0199 34.8173 35.022H34.8396ZM11.4798 26.6743H27.6537L19.6002 12.7094L11.4798 26.6743Z" fill="url(#paint0_linear_7637_2176)"/>
<defs>
<linearGradient id="paint0_linear_7637_2176" x1="27.6649" y1="81.0625" x2="15.4722" y2="5.61737" gradientUnits="userSpaceOnUse">
<stop stop-color="#FF7B47"/>
<stop offset="1" stop-color="#FFC468"/>
</linearGradient>
</defs>
</svg>
