<svg width="36" height="32" viewBox="0 0 36 32" fill="none" xmlns="http://www.w3.org/2000/svg">
<path d="M4.05198 0.334314L31.4716 0.334316C32.1275 0.336151 32.7714 0.510565 33.3389 0.840132C33.9064 1.1697 34.3775 1.64284 34.7051 2.21218C35.0327 2.78153 35.2053 3.42709 35.2056 4.08428C35.2059 4.74146 35.0339 5.38722 34.7068 5.95686L21.007 29.7276C20.6794 30.2969 20.2078 30.7698 19.6399 31.0985C19.0719 31.4273 18.4277 31.6003 17.7718 31.6003C17.1159 31.6003 16.4715 31.4273 15.9035 31.0985C15.3356 30.7698 14.8642 30.2969 14.5365 29.7276L0.836623 5.95686C0.509531 5.38722 0.337546 4.74146 0.337843 4.08428C0.338141 3.42709 0.510726 2.78153 0.838328 2.21218C1.16593 1.64283 1.63712 1.16969 2.2046 0.840129C2.77209 0.510562 3.41605 0.336148 4.07197 0.334314L4.05198 0.334314ZM25.0211 7.82771L10.5024 7.82771L17.7318 20.3634L25.0211 7.82771Z" fill="white"/>
</svg>
